<?xml version="1.0" encoding="UTF-8" standalone="no"?>
<svg
   xmlns:dc="http://purl.org/dc/elements/1.1/"
   xmlns:cc="http://creativecommons.org/ns#"
   xmlns:rdf="http://www.w3.org/1999/02/22-rdf-syntax-ns#"
   xmlns:svg="http://www.w3.org/2000/svg"
   xmlns="http://www.w3.org/2000/svg"
   xmlns:sodipodi="http://sodipodi.sourceforge.net/DTD/sodipodi-0.dtd"
   xmlns:inkscape="http://www.inkscape.org/namespaces/inkscape"
   version="1.1"
   id="svg10"
   width="1370"
   height="275"
   viewBox="0 0 1370 275"
   sodipodi:docname="Womega_Name.svg"
   inkscape:version="1.0.2-2 (e86c870879, 2021-01-15)">
  <metadata
     id="metadata16">
    <rdf:RDF>
      <cc:Work
         rdf:about="">
        <dc:format>image/svg+xml</dc:format>
        <dc:type
           rdf:resource="http://purl.org/dc/dcmitype/StillImage" />
        <dc:title></dc:title>
      </cc:Work>
    </rdf:RDF>
  </metadata>
  <defs
     id="defs14" />
  <sodipodi:namedview
     pagecolor="#ffffff"
     bordercolor="#666666"
     borderopacity="1"
     objecttolerance="10"
     gridtolerance="10"
     guidetolerance="10"
     inkscape:pageopacity="0"
     inkscape:pageshadow="2"
     inkscape:window-width="1920"
     inkscape:window-height="1001"
     id="namedview12"
     showgrid="false"
     inkscape:zoom="0.5738153"
     inkscape:cx="386.34219"
     inkscape:cy="565.75474"
     inkscape:window-x="-9"
     inkscape:window-y="-9"
     inkscape:window-maximized="1"
     inkscape:current-layer="g18"
     inkscape:document-rotation="0"
     width="1025px" />
  <g
     inkscape:groupmode="layer"
     inkscape:label="Image"
     id="g18">
    <path
       style="fill:#a34222;fill-opacity:1;stroke:none;stroke-width:3.1558px;stroke-linecap:butt;stroke-linejoin:miter;stroke-opacity:1"
       d="m 8.125,19.92057 v 236.29137 c 0,0 0.28718,6.15591 6.7061,9.8619 6.41895,3.70599 13.80667,-0.78895 13.80667,-0.78895 l 89.94063,-94.67432 87.96824,93.4909 c 0,0 9.43937,7.19636 18.14592,2.16963 5.27882,-3.04773 5.52265,-7.88953 5.52265,-7.88953 V 20.11779 c 0,0 -0.98618,-11.43981 -13.41218,-11.43981 -12.42602,0 -13.21495,11.04535 -13.21495,11.04535 v 200.394 l -74.35883,-81.06488 c 0,0 -3.94476,-6.31164 -9.07296,-6.31164 -5.12817,0 -9.07294,4.14201 -9.07294,4.14201 L 36.92176,217.15875 V 20.51226 c 0,0 -0.5917,-12.22874 -14.59561,-12.22874 C 8.32226,8.28352 8.125,19.92057 8.125,19.92057 Z"
       id="path32"
       sodipodi:nodetypes="ccscccsccscccscccsc" />
    <path
       id="path34-1"
       style="fill:#a34222;fill-opacity:1;stroke:none;stroke-width:3.91045px;stroke-linecap:butt;stroke-linejoin:miter;stroke-opacity:1"
       d="m 369.29102,16.292969 c 0,0 -119.69532,2.967393 -119.69532,123.402341 0,120.43496 122.28516,122.28516 122.28516,122.28516 0,0 124.88281,1.11078 124.88281,-123.40039 0,-124.511272 -127.47265,-122.287111 -127.47265,-122.287111 z m -0.48047,24.794922 c 0,0 102.875,-1.793147 102.875,98.689449 0,100.48256 -100.78125,99.58399 -100.78125,99.58399 0,0 -98.6875,-1.49456 -98.6875,-98.6875 0,-97.192982 96.59375,-99.585939 96.59375,-99.585939 z" />
    <path
       style="fill:#a34222;fill-opacity:1;stroke:none;stroke-width:3.1558px;stroke-linecap:butt;stroke-linejoin:miter;stroke-opacity:1"
       d="M 516.1478,256.17884 V 19.88748 c 0,0 0.2872,-6.15591 6.7061,-9.86191 6.4189,-3.70599 13.8066,0.78895 13.8066,0.78895 l 89.9407,94.67436 87.9682,-93.49093 c 0,0 9.4394,-7.196289 18.1459,-2.1696 4.6536,2.686722 5.5227,7.88952 5.5227,7.88952 v 238.26375 c 0,0 -0.9862,11.43981 -13.4122,11.43981 -12.426,0 -13.215,-11.04533 -13.215,-11.04533 V 55.98207 l -74.3588,81.06491 c 0,0 -3.9447,6.31162 -9.0729,6.31162 -5.1282,0 -9.073,-4.142 -9.073,-4.142 L 544.9446,58.94065 v 196.64649 c 0,0 -0.5917,12.22877 -14.5957,12.22877 -14.0039,0 -14.2011,-11.63707 -14.2011,-11.63707 z"
       id="path32-4"
       sodipodi:nodetypes="ccscccsccscccscccsc" />
    <path
       style="fill:#a34222;fill-opacity:1;stroke:none;stroke-width:3.1558px;stroke-linecap:butt;stroke-linejoin:miter;stroke-opacity:1"
       d="M 895.9929,12.31351 H 772.075 c 0,0 -6.344,-0.42294 -9.7274,2.96051 -3.3834,3.3834 -2.4364,9.09282 -2.4364,9.09282 v 229.85844 c 0,0 -0.4433,3.74623 1.365,6.87825 1.8083,3.13205 7.6259,4.6354 7.6259,4.6354 h 128.8928 c 0,0 12.1118,0 12.1118,-14.20514 0,-14.20513 -12.2613,-13.30798 -12.2613,-13.30798 H 788.4902 V 155.238 h 75.362 c 0,0 11.2145,-0.89717 11.2145,-14.50419 0,-13.60702 -11.8127,-13.75656 -11.8127,-13.75656 H 788.1912 V 40.69984 h 110.6504 c 0,0 11.2146,-0.44861 11.2146,-14.80324 0,-14.35465 -14.0633,-13.58309 -14.0633,-13.58309 z"
       id="path90" />
    <path
       style="fill:#a34222;fill-opacity:1;stroke:none;stroke-width:3.1558px;stroke-linecap:butt;stroke-linejoin:miter;stroke-opacity:1"
       d="m 1051.9768,40.40077 c 0,0 -98.6882,0 -98.6882,98.38917 0,98.38919 98.9872,101.08071 98.9872,101.08071 0,0 41.5687,-0.89717 61.0073,-20.33577 19.4386,-19.43862 29.6065,-35.88663 29.6065,-35.88663 l 4.1867,-8.97166 2.6916,-8.0745 1.4952,-7.17731 v -5.08395 h -61.6053 c 0,0 -14.9528,0 -14.9528,-14.35465 0,-14.35467 13.4575,-15.84993 13.4575,-15.84993 h 80.1468 c 0,0 6.4193,-0.75127 9.1154,1.94489 2.6962,2.69617 3.2777,6.97831 3.2777,6.97831 v 21.35787 c 0,0 -16.6291,112.36098 -126.9668,112.36098 -110.3377,0 -126.4931,-107.24411 -126.4931,-107.24411 0,0 -17.5303,-79.05818 54.6533,-126.14937 72.1835,-47.09116 135.0863,-5.84342 135.0863,-5.84342 l 8.1749,5.49815 8.5069,6.07638 7.5347,7.53471 1.2153,1.21525 c 0,0 11.7882,10.08678 0.9722,20.90272 -10.8159,10.8159 -20.1735,-3.64586 -20.1735,-3.64586 0,0 -17.5,-15.79852 -32.0832,-18.71517 -14.5833,-2.91667 -39.1526,-6.00681 -39.1526,-6.00681 z"
       id="path92" />
    <path
       id="path94"
       style="fill:#a34222;fill-opacity:1;stroke:none;stroke-width:3.1558px;stroke-linecap:butt;stroke-linejoin:miter;stroke-opacity:1"
       d="m 1279.1113,8.734375 c -75.7115,0 -80.5703,64.179685 -80.5703,64.179685 v 182.51953 c 0,0 0.9707,12.64063 13.002,12.64063 12.0311,0 15.0683,-13.125 15.0683,-13.125 l -1.9433,-95.52149 h 109.2519 v 97.46485 c 0,0 0.2441,10.9375 14.4629,10.9375 14.2186,0 13.9746,-11.30274 13.9746,-11.30274 V 83.5957 c 0,0 -7.5345,-74.861325 -83.2461,-74.861325 z m -1.3359,28.923828 c 53.9581,0 54.9297,43.992187 54.9297,43.992187 v 48.36719 H 1225.5176 V 79.94922 c 0,0 -1.7003,-42.291017 52.2578,-42.291017 z" />
  </g>
</svg>
