<?xml version="1.0" encoding="UTF-8" standalone="no"?>
<svg
   xmlns:dc="http://purl.org/dc/elements/1.1/"
   xmlns:cc="http://creativecommons.org/ns#"
   xmlns:rdf="http://www.w3.org/1999/02/22-rdf-syntax-ns#"
   xmlns:svg="http://www.w3.org/2000/svg"
   xmlns="http://www.w3.org/2000/svg"
   xmlns:sodipodi="http://sodipodi.sourceforge.net/DTD/sodipodi-0.dtd"
   xmlns:inkscape="http://www.inkscape.org/namespaces/inkscape"
   version="1.1"
   id="svg10"
   width="1850"
   height="350"
   viewBox="0 0 1850 350"
   sodipodi:docname="Womega_Combo.svg"
   inkscape:version="1.0.2-2 (e86c870879, 2021-01-15)">
  <metadata
     id="metadata16">
    <rdf:RDF>
      <cc:Work
         rdf:about="">
        <dc:format>image/svg+xml</dc:format>
        <dc:type
           rdf:resource="http://purl.org/dc/dcmitype/StillImage" />
        <dc:title />
      </cc:Work>
    </rdf:RDF>
  </metadata>
  <defs
     id="defs14" />
  <sodipodi:namedview
     pagecolor="#ffffff"
     bordercolor="#666666"
     borderopacity="1"
     objecttolerance="10"
     gridtolerance="10"
     guidetolerance="10"
     inkscape:pageopacity="0"
     inkscape:pageshadow="2"
     inkscape:window-width="1920"
     inkscape:window-height="1001"
     id="namedview12"
     showgrid="false"
     inkscape:zoom="0.5738153"
     inkscape:cx="1105.9268"
     inkscape:cy="299.71434"
     inkscape:window-x="-9"
     inkscape:window-y="-9"
     inkscape:window-maximized="1"
     inkscape:current-layer="g18"
     inkscape:document-rotation="0"
     width="1025px" />
  <g
     inkscape:groupmode="layer"
     inkscape:label="Image"
     id="g18">
    <path
       id="path22"
       style="fill:#a34222;fill-opacity:1;stroke:none;stroke-width:1.83055px;stroke-linecap:butt;stroke-linejoin:miter;stroke-opacity:1"
       d="M 18.181641 19.347656 L 18.181641 338.07617 L 49.472656 338.07617 L 184.26562 231.06445 L 308.92969 336.67188 L 346.43945 336.67188 L 346.43945 95.167969 L 366.39648 78.921875 L 366.39648 336.64648 L 406.80664 336.64648 L 406.80664 22.552734 L 372.3418 22.552734 L 246.03711 127.43945 L 113.77734 19.574219 L 79.59375 19.574219 L 79.59375 261.33203 L 60.730469 276.79102 L 60.730469 19.533203 L 18.181641 19.347656 z M 122.10938 82.871094 L 243.7207 179.93555 L 303.67188 130.05273 L 303.67188 280.1582 L 181.71094 181.30859 L 122.10938 227.98828 L 122.10938 82.871094 z " />
    <path
       style="fill:#a34222;fill-opacity:1;stroke:none;stroke-width:3.1558px;stroke-linecap:butt;stroke-linejoin:miter;stroke-opacity:1"
       d="m 502.125,61.92057 v 236.29137 c 0,0 0.28718,6.15591 6.7061,9.8619 6.41895,3.70599 13.80667,-0.78895 13.80667,-0.78895 l 89.94063,-94.67432 87.96824,93.4909 c 0,0 9.43937,7.19636 18.14592,2.16963 5.27882,-3.04773 5.52265,-7.88953 5.52265,-7.88953 V 62.11779 c 0,0 -0.98618,-11.43981 -13.41218,-11.43981 -12.42602,0 -13.21495,11.04535 -13.21495,11.04535 v 200.394 l -74.35883,-81.06488 c 0,0 -3.94476,-6.31164 -9.07296,-6.31164 -5.12817,0 -9.07294,4.14201 -9.07294,4.14201 l -74.16159,80.27593 V 62.51226 c 0,0 -0.5917,-12.22874 -14.59561,-12.22874 -14.00389,0 -14.20115,11.63705 -14.20115,11.63705 z"
       id="path32"
       sodipodi:nodetypes="ccscccsccscccscccsc" />
    <path
       id="path34-1"
       style="fill:#a34222;fill-opacity:1;stroke:none;stroke-width:3.91045px;stroke-linecap:butt;stroke-linejoin:miter;stroke-opacity:1"
       d="M 863.29102 58.292969 C 863.29102 58.292969 743.5957 61.260362 743.5957 181.69531 C 743.5957 302.13027 865.88086 303.98047 865.88086 303.98047 C 865.88086 303.98047 990.76367 305.09125 990.76367 180.58008 C 990.76367 56.068808 863.29102 58.292969 863.29102 58.292969 z M 862.81055 83.087891 C 862.81055 83.087891 965.68555 81.294744 965.68555 181.77734 C 965.68555 282.2599 864.9043 281.36133 864.9043 281.36133 C 864.9043 281.36133 766.2168 279.86677 766.2168 182.67383 C 766.2168 85.480848 862.81055 83.087891 862.81055 83.087891 z " />
    <path
       style="fill:#a34222;fill-opacity:1;stroke:none;stroke-width:3.1558px;stroke-linecap:butt;stroke-linejoin:miter;stroke-opacity:1"
       d="M 1010.1478,298.17884 V 61.88748 c 0,0 0.2872,-6.15591 6.7061,-9.86191 6.4189,-3.70599 13.8066,0.78895 13.8066,0.78895 l 89.9407,94.67436 87.9682,-93.49093 c 0,0 9.4394,-7.196289 18.1459,-2.1696 4.6536,2.686722 5.5227,7.88952 5.5227,7.88952 v 238.26375 c 0,0 -0.9862,11.43981 -13.4122,11.43981 -12.426,0 -13.215,-11.04533 -13.215,-11.04533 V 97.98207 l -74.3588,81.06491 c 0,0 -3.9447,6.31162 -9.0729,6.31162 -5.1282,0 -9.073,-4.142 -9.073,-4.142 l -74.1615,-80.27595 v 196.64649 c 0,0 -0.5917,12.22877 -14.5957,12.22877 -14.0039,0 -14.2011,-11.63707 -14.2011,-11.63707 z"
       id="path32-4"
       sodipodi:nodetypes="ccscccsccscccscccsc" />
    <path
       style="fill:#a34222;fill-opacity:1;stroke:none;stroke-width:3.1558px;stroke-linecap:butt;stroke-linejoin:miter;stroke-opacity:1"
       d="M 1381.9929,54.31351 H 1258.075 c 0,0 -6.344,-0.42294 -9.7274,2.96051 -3.3834,3.3834 -2.4364,9.09282 -2.4364,9.09282 v 229.85844 c 0,0 -0.4433,3.74623 1.365,6.87825 1.8083,3.13205 7.6259,4.6354 7.6259,4.6354 h 128.8928 c 0,0 12.1118,0 12.1118,-14.20514 0,-14.20513 -12.2613,-13.30798 -12.2613,-13.30798 H 1274.4902 V 197.238 h 75.362 c 0,0 11.2145,-0.89717 11.2145,-14.50419 0,-13.60702 -11.8127,-13.75656 -11.8127,-13.75656 h -75.0628 V 82.69984 h 110.6504 c 0,0 11.2146,-0.44861 11.2146,-14.80324 0,-14.35465 -14.0633,-13.58309 -14.0633,-13.58309 z"
       id="path90" />
    <path
       style="fill:#a34222;fill-opacity:1;stroke:none;stroke-width:3.1558px;stroke-linecap:butt;stroke-linejoin:miter;stroke-opacity:1"
       d="m 1531.9768,82.40077 c 0,0 -98.6882,0 -98.6882,98.38917 0,98.38919 98.9872,101.08071 98.9872,101.08071 0,0 41.5687,-0.89717 61.0073,-20.33577 19.4386,-19.43862 29.6065,-35.88663 29.6065,-35.88663 l 4.1867,-8.97166 2.6916,-8.0745 1.4952,-7.17731 v -5.08395 h -61.6053 c 0,0 -14.9528,0 -14.9528,-14.35465 0,-14.35467 13.4575,-15.84993 13.4575,-15.84993 h 80.1468 c 0,0 6.4193,-0.75127 9.1154,1.94489 2.6962,2.69617 3.2777,6.97831 3.2777,6.97831 v 21.35787 c 0,0 -16.6291,112.36098 -126.9668,112.36098 -110.3377,0 -126.4931,-107.24411 -126.4931,-107.24411 0,0 -17.5303,-79.05818 54.6533,-126.14937 72.1835,-47.09116 135.0863,-5.84342 135.0863,-5.84342 l 8.1749,5.49815 8.5069,6.07638 7.5347,7.53471 1.2153,1.21525 c 0,0 11.7882,10.08678 0.9722,20.90272 -10.8159,10.8159 -20.1735,-3.64586 -20.1735,-3.64586 0,0 -17.5,-15.79852 -32.0832,-18.71517 -14.5833,-2.91667 -39.1526,-6.00681 -39.1526,-6.00681 z"
       id="path92" />
    <path
       id="path94"
       style="fill:#a34222;fill-opacity:1;stroke:none;stroke-width:3.1558px;stroke-linecap:butt;stroke-linejoin:miter;stroke-opacity:1"
       d="M 1751.1113 50.734375 C 1675.3998 50.734375 1670.541 114.91406 1670.541 114.91406 L 1670.541 297.43359 C 1670.541 297.43359 1671.5117 310.07422 1683.543 310.07422 C 1695.5741 310.07422 1698.6113 296.94922 1698.6113 296.94922 L 1696.668 201.42773 L 1805.9199 201.42773 L 1805.9199 298.89258 C 1805.9199 298.89258 1806.164 309.83008 1820.3828 309.83008 C 1834.6014 309.83008 1834.3574 298.52734 1834.3574 298.52734 L 1834.3574 125.5957 C 1834.3574 125.5957 1826.8229 50.734375 1751.1113 50.734375 z M 1749.7754 79.658203 C 1803.7335 79.658203 1804.7051 123.65039 1804.7051 123.65039 L 1804.7051 172.01758 L 1697.5176 172.01758 L 1697.5176 121.94922 C 1697.5176 121.94922 1695.8173 79.658203 1749.7754 79.658203 z " />
  </g>
</svg>
