<?xml version="1.0" encoding="UTF-8" standalone="no"?>
<svg
   xmlns:dc="http://purl.org/dc/elements/1.1/"
   xmlns:cc="http://creativecommons.org/ns#"
   xmlns:rdf="http://www.w3.org/1999/02/22-rdf-syntax-ns#"
   xmlns:svg="http://www.w3.org/2000/svg"
   xmlns="http://www.w3.org/2000/svg"
   xmlns:sodipodi="http://sodipodi.sourceforge.net/DTD/sodipodi-0.dtd"
   xmlns:inkscape="http://www.inkscape.org/namespaces/inkscape"
   version="1.1"
   id="svg10"
   width="1850"
   height="350"
   viewBox="0 0 1850 350"
   sodipodi:docname="Womega - Combo.svg"
   inkscape:version="1.0.2-2 (e86c870879, 2021-01-15)">
  <metadata
     id="metadata16">
    <rdf:RDF>
      <cc:Work
         rdf:about="">
        <dc:format>image/svg+xml</dc:format>
        <dc:type
           rdf:resource="http://purl.org/dc/dcmitype/StillImage" />
        <dc:title></dc:title>
      </cc:Work>
    </rdf:RDF>
  </metadata>
  <defs
     id="defs14" />
  <sodipodi:namedview
     pagecolor="#ffffff"
     bordercolor="#666666"
     borderopacity="1"
     objecttolerance="10"
     gridtolerance="10"
     guidetolerance="10"
     inkscape:pageopacity="0"
     inkscape:pageshadow="2"
     inkscape:window-width="1920"
     inkscape:window-height="1001"
     id="namedview12"
     showgrid="false"
     inkscape:zoom="0.40574869"
     inkscape:cx="1123.7685"
     inkscape:cy="235.07468"
     inkscape:window-x="-9"
     inkscape:window-y="-9"
     inkscape:window-maximized="1"
     inkscape:current-layer="g18"
     inkscape:document-rotation="0"
     width="1025px" />
  <g
     inkscape:groupmode="layer"
     inkscape:label="Image"
     id="g18">
    <path
       style="fill:#a34222;fill-opacity:1;stroke:none;stroke-width:1.83055px;stroke-linecap:butt;stroke-linejoin:miter;stroke-opacity:1"
       d="M 18.1817,19.34758 V 338.07672 H 49.47292 L 184.26586,231.06477 308.92927,336.67263 h 37.50934 V 95.16862 l 19.95818,-16.24739 v 257.72446 h 40.4105 V 22.552464 H 372.34142 L 246.03752,127.43933 113.77654,19.573942 H 79.59435 V 261.33139 L 60.73032,276.79138 V 19.533496 Z"
       id="path22" />
    <path
       style="fill:#ffffff;stroke:none;stroke-width:1.83055px;stroke-linecap:butt;stroke-linejoin:miter;stroke-opacity:1"
       d="m 122.10908,82.87026 v 145.11775 l 59.60136,-46.67916 121.96077,98.85 V 130.05329 l -59.95069,49.88265 z"
       id="path24" />
    <path
       style="fill:#a34222;fill-opacity:1;stroke:none;stroke-width:3.1558px;stroke-linecap:butt;stroke-linejoin:miter;stroke-opacity:1"
       d="m 502.125,61.92057 v 236.29137 c 0,0 0.28718,6.15591 6.7061,9.8619 6.41895,3.70599 13.80667,-0.78895 13.80667,-0.78895 l 89.94063,-94.67432 87.96824,93.4909 c 0,0 9.43937,7.19636 18.14592,2.16963 8.70653,-5.02677 5.52265,-7.88953 5.52265,-7.88953 V 62.11779 c 0,0 -0.98618,-11.43981 -13.41218,-11.43981 -12.42602,0 -13.21495,11.04535 -13.21495,11.04535 v 200.394 l -74.35883,-81.06488 c 0,0 -3.94476,-6.31164 -9.07296,-6.31164 -5.12817,0 -9.07294,4.14201 -9.07294,4.14201 l -74.16159,80.27593 V 62.51226 c 0,0 -0.5917,-12.22874 -14.59561,-12.22874 -14.00389,0 -14.20115,11.63705 -14.20115,11.63705 z"
       id="path32" />
    <path
       id="path34-1"
       style="fill:#a34222;fill-opacity:1;stroke:none;stroke-width:3.91045px;stroke-linecap:butt;stroke-linejoin:miter;stroke-opacity:1"
       d="m 863.29192,58.29366 c 0,0 -119.69696,2.96627 -119.69696,123.40122 0,120.43496 122.28615,122.28615 122.28615,122.28615 0,0 124.88297,1.10998 124.88297,-123.40119 0,-124.51127 -127.47216,-122.28618 -127.47216,-122.28618 z" />
    <path
       style="fill:#a34222;fill-opacity:1;stroke:none;stroke-width:3.1558px;stroke-linecap:butt;stroke-linejoin:miter;stroke-opacity:1"
       d="M 1010.1478,298.17884 V 61.88748 c 0,0 0.2872,-6.15591 6.7061,-9.86191 6.4189,-3.70599 13.8066,0.78895 13.8066,0.78895 l 89.9407,94.67436 87.9682,-93.49093 c 0,0 9.4394,-7.19634 18.1459,-2.1696 8.7066,5.02673 5.5227,7.88952 5.5227,7.88952 v 238.26375 c 0,0 -0.9862,11.43981 -13.4122,11.43981 -12.426,0 -13.215,-11.04533 -13.215,-11.04533 V 97.98207 l -74.3588,81.06491 c 0,0 -3.9447,6.31162 -9.0729,6.31162 -5.1282,0 -9.073,-4.142 -9.073,-4.142 l -74.1615,-80.27595 v 196.64649 c 0,0 -0.5917,12.22877 -14.5957,12.22877 -14.0039,0 -14.2011,-11.63707 -14.2011,-11.63707 z"
       id="path32-4" />
    <path
       style="fill:#a34222;fill-opacity:1;stroke:none;stroke-width:3.1558px;stroke-linecap:butt;stroke-linejoin:miter;stroke-opacity:1"
       d="M 1381.9929,54.31351 H 1258.075 c 0,0 -6.344,-0.42294 -9.7274,2.96051 -3.3834,3.3834 -2.4364,9.09282 -2.4364,9.09282 v 229.85844 c 0,0 -0.4433,3.74623 1.365,6.87825 1.8083,3.13205 7.6259,4.6354 7.6259,4.6354 h 128.8928 c 0,0 12.1118,0 12.1118,-14.20514 0,-14.20513 -12.2613,-13.30798 -12.2613,-13.30798 H 1274.4902 V 197.238 h 75.362 c 0,0 11.2145,-0.89717 11.2145,-14.50419 0,-13.60702 -11.8127,-13.75656 -11.8127,-13.75656 h -75.0628 V 82.69984 h 110.6504 c 0,0 11.2146,-0.44861 11.2146,-14.80324 0,-14.35465 -14.0633,-13.58309 -14.0633,-13.58309 z"
       id="path90" />
    <path
       style="fill:#a34222;fill-opacity:1;stroke:none;stroke-width:3.1558px;stroke-linecap:butt;stroke-linejoin:miter;stroke-opacity:1"
       d="m 1531.9768,82.40077 c 0,0 -98.6882,0 -98.6882,98.38917 0,98.38919 98.9872,101.08071 98.9872,101.08071 0,0 41.5687,-0.89717 61.0073,-20.33577 19.4386,-19.43862 29.6065,-35.88663 29.6065,-35.88663 l 4.1867,-8.97166 2.6916,-8.0745 1.4952,-7.17731 v -5.08395 h -61.6053 c 0,0 -14.9528,0 -14.9528,-14.35465 0,-14.35467 13.4575,-15.84993 13.4575,-15.84993 h 80.1468 c 0,0 6.4193,-0.75127 9.1154,1.94489 2.6962,2.69617 3.2777,6.97831 3.2777,6.97831 v 21.35787 c 0,0 -16.6291,112.36098 -126.9668,112.36098 -110.3377,0 -126.4931,-107.24411 -126.4931,-107.24411 0,0 -17.5303,-79.05818 54.6533,-126.14937 72.1835,-47.09116 135.0863,-5.84342 135.0863,-5.84342 l 8.1749,5.49815 8.5069,6.07638 7.5347,7.53471 1.2153,1.21525 c 0,0 11.7882,10.08678 0.9722,20.90272 -10.8159,10.8159 -20.1735,-3.64586 -20.1735,-3.64586 0,0 -17.5,-15.79852 -32.0832,-18.71517 -14.5833,-2.91667 -39.1526,-6.00681 -39.1526,-6.00681 z"
       id="path92" />
    <path
       style="fill:#a34222;fill-opacity:1;stroke:none;stroke-width:3.1558px;stroke-linecap:butt;stroke-linejoin:miter;stroke-opacity:1"
       d="m 1696.6671,201.42796 h 109.2531 v 97.46493 c 0,0 0.243,10.93748 14.4618,10.93748 14.2186,0 13.9755,-11.30206 13.9755,-11.30206 V 125.59494 c 0,0 -7.5346,-74.86083 -83.2462,-74.86083 -75.7115,0 -80.5707,64.1798 -80.5707,64.1798 v 182.52066 c 0,0 0.9703,12.63883 13.0016,12.63883 12.0311,0 15.0693,-13.12492 15.0693,-13.12492 z"
       id="path94" />
    <path
       style="fill:#ffffff;stroke:none;stroke-width:3.1558px;stroke-linecap:butt;stroke-linejoin:miter;stroke-opacity:1"
       d="m 1697.5178,121.94911 v 50.06923 h 107.1871 v -48.36783 c 0,0 -0.9723,-43.99291 -54.9304,-43.99291 -53.9581,0 -52.2567,42.29151 -52.2567,42.29151 z"
       id="path96" />
    <path
       style="fill:#ffffff;stroke:none;stroke-width:3.1558px;stroke-linecap:butt;stroke-linejoin:miter;stroke-opacity:1"
       d="m 862.81148,83.08824 c 0,0 -96.59485,2.39243 -96.59485,99.58541 0,97.19294 98.68825,98.6882 98.68825,98.6882 0,0 100.78163,0.89719 100.78163,-99.58537 0,-100.4826 -102.87503,-98.68824 -102.87503,-98.68824 z"
       id="path921" />
  </g>
</svg>
